# Blender v2.76 (sub 0) OBJ File: 'x.blend'
# www.blender.org
mtllib x.mtl
o Cube_Cube.001
v -0.844589 -0.390752 1.044668
v -0.844589 1.341299 0.044667
v -0.844589 -1.390752 -0.687383
v -0.844589 0.341298 -1.687383
v 1.155411 -0.390752 1.044668
v 1.155411 1.341299 0.044667
v 1.155411 -1.390752 -0.687383
v 1.155411 0.341298 -1.687383
v -0.844589 1.341299 0.044667
v -0.844589 0.341298 -1.687383
v 1.155411 1.341299 0.044667
v 1.155411 0.341298 -1.687383
v -0.844589 4.305400 -1.955333
v -0.844589 4.305400 -3.687384
v 1.155411 4.305400 -1.955333
v 1.155411 4.305400 -3.687384
v -0.844589 -0.390752 1.044668
v -0.844589 -1.390752 -0.687383
v 1.155411 -0.390752 1.044668
v 1.155411 -1.390752 -0.687383
v -0.844589 -4.354854 3.044668
v -0.844589 -4.354854 1.312617
v 1.155411 -4.354854 3.044668
v 1.155411 -4.354854 1.312617
v -0.844589 -1.390752 0.044667
v -0.844589 0.341298 1.044668
v -0.844589 -0.390752 -1.687383
v -0.844589 1.341299 -0.687383
v 1.155411 -1.390752 0.044667
v 1.155411 0.341298 1.044668
v 1.155411 -0.390752 -1.687383
v 1.155411 1.341299 -0.687383
v -0.844589 0.341298 1.044668
v -0.844589 1.341299 -0.687383
v 1.155411 0.341298 1.044668
v 1.155411 1.341299 -0.687383
v -0.844589 4.305400 3.044668
v -0.844589 4.305400 1.312617
v 1.155411 4.305400 3.044668
v 1.155411 4.305400 1.312617
v -0.844589 -1.390752 0.044667
v -0.844589 -0.390752 -1.687383
v 1.155411 -1.390752 0.044667
v 1.155411 -0.390752 -1.687383
v -0.844589 -4.354854 -1.955333
v -0.844589 -4.354854 -3.687384
v 1.155411 -4.354854 -1.955333
v 1.155411 -4.354854 -3.687384
vt 0.615664 0.688350
vt 0.769641 0.688350
vt 0.769641 0.843628
vt 0.153977 0.844242
vt 0.307952 0.844242
vt 0.307952 0.999520
vt 0.000000 0.844242
vt 0.000000 0.688964
vt 0.153975 0.999520
vt 0.000000 0.999520
vt 0.000000 0.000000
vt 0.461687 0.344175
vt 0.480934 0.000000
vt 0.596417 0.067237
vt 0.153977 0.000000
vt 0.307954 0.000000
vt 0.307954 0.067766
vt 0.461687 0.689444
vt 0.307954 0.680701
vt 0.342633 0.405295
vt 0.153977 0.344789
vt 0.153977 0.067766
vt 0.769641 0.344083
vt 0.769641 0.000000
vt 0.923618 0.000000
vt 0.923618 0.344175
vt 0.923618 0.688258
vt 0.769641 0.688258
vt 0.000000 0.067766
vt 0.000000 0.344789
vt 0.615664 0.344175
vt 0.634911 0.000000
vt 0.750394 0.067237
vt 0.461687 0.344722
vt 0.307954 0.335979
vt 0.342633 0.060573
vt 0.153977 0.688964
vt 1.000000 0.000000
vt 1.000000 0.155278
vt 0.615664 0.843628
vt 0.769641 0.998906
vt 1.000000 0.310556
vt 0.923618 0.310556
vt 0.923618 0.155278
vt 0.307954 0.688964
vt 0.173224 0.412026
vt 0.461687 0.688350
vt 0.615664 0.756116
vt 0.019247 0.344789
vt 0.134730 0.412026
vt 0.461687 0.943701
vt 0.461687 0.756116
vt 0.427469 0.844722
vt 0.307954 0.844722
vt 0.307954 0.689444
vt 0.427469 1.000000
vt 0.307954 1.000000
vt 0.923618 0.756024
vt 0.769641 0.756024
vt 0.769641 0.943609
vt 0.615664 0.688350
vt 0.634911 0.411412
vt 0.480934 0.344175
vt 0.596417 0.411412
vt 0.307954 0.344789
vt 0.923618 0.344083
vt 0.769641 0.344175
vt 0.461687 0.000000
vt 0.615664 0.998906
vt 0.288707 0.344789
vt 0.615664 0.943701
vt 0.427469 0.689444
vt 0.923618 0.943609
vt 0.750394 0.344175
vn -1.000000 0.000000 0.000000
vn 0.000000 -0.500000 -0.866000
vn 1.000000 0.000000 0.000000
vn 0.000000 0.500000 0.866000
vn 0.000000 0.000000 1.000000
vn 0.000000 1.000000 0.000000
vn 0.000000 0.559300 0.828900
vn 0.000000 -0.450400 -0.892800
vn 0.000000 0.450400 0.892800
vn 0.000000 -1.000000 0.000000
vn 0.000000 -0.559300 -0.828900
vn 0.000000 0.500000 -0.866000
vn 0.000000 -0.500000 0.866000
vn 0.000000 -0.450400 0.892800
vn 0.000000 0.559300 -0.828900
vn 0.000000 -0.559300 0.828900
vn 0.000000 0.450400 -0.892800
usemtl None
s off
f 4/1/1 3/2/1 1/3/1
f 8/4/2 7/5/2 3/6/2
f 6/4/3 5/7/3 7/8/3
f 2/9/4 1/10/4 5/7/4
f 5/11/5 1/11/5 17/11/5
f 6/11/5 8/11/5 12/11/5
f 12/12/3 16/13/3 15/14/3
f 4/11/5 2/11/5 9/11/5
f 2/11/5 6/11/5 11/11/5
f 8/11/5 4/11/5 10/11/5
f 16/15/6 14/16/6 13/17/6
f 10/18/1 9/19/1 13/20/1
f 11/21/7 15/22/7 13/17/7
f 10/23/8 14/24/8 16/25/8
f 17/26/9 21/27/9 23/28/9
f 7/11/5 5/11/5 19/11/5
f 1/11/5 3/11/5 18/11/5
f 3/11/5 7/11/5 20/11/5
f 22/22/10 24/29/10 23/11/10
f 20/30/11 24/29/11 22/22/11
f 19/31/3 23/32/3 24/33/3
f 17/34/1 18/35/1 22/36/1
f 28/5/1 27/4/1 25/37/1
f 32/25/12 31/38/12 27/39/12
f 30/40/3 29/3/3 31/41/3
f 26/42/13 25/43/13 29/44/13
f 29/11/5 25/11/5 41/11/5
f 30/11/5 32/11/5 36/11/5
f 35/45/3 36/37/3 40/46/3
f 28/11/5 26/11/5 33/11/5
f 26/11/5 30/11/5 35/11/5
f 32/11/5 28/11/5 34/11/5
f 40/47/6 38/1/6 37/48/6
f 33/8/1 37/49/1 38/50/1
f 35/51/14 39/52/14 37/48/14
f 34/53/15 38/54/15 40/55/15
f 41/56/16 45/57/16 47/54/16
f 31/11/5 29/11/5 43/11/5
f 25/11/5 27/11/5 42/11/5
f 27/11/5 31/11/5 44/11/5
f 46/58/10 48/59/10 47/28/10
f 44/60/17 48/59/17 46/58/17
f 44/28/3 43/61/3 47/62/3
f 42/47/1 46/63/1 45/64/1
f 2/40/1 4/1/1 1/3/1
f 4/9/2 8/4/2 3/6/2
f 8/37/3 6/4/3 7/8/3
f 6/4/4 2/9/4 5/7/4
f 19/11/5 5/11/5 17/11/5
f 11/11/5 6/11/5 12/11/5
f 11/31/3 12/12/3 15/14/3
f 10/11/5 4/11/5 9/11/5
f 9/11/5 2/11/5 11/11/5
f 12/11/5 8/11/5 10/11/5
f 15/22/6 16/15/6 13/17/6
f 14/34/1 10/18/1 13/20/1
f 9/65/7 11/21/7 13/17/7
f 12/66/8 10/23/8 16/25/8
f 19/67/9 17/26/9 23/28/9
f 20/11/5 7/11/5 19/11/5
f 17/11/5 1/11/5 18/11/5
f 18/11/5 3/11/5 20/11/5
f 21/15/10 22/22/10 23/11/10
f 18/21/11 20/30/11 22/22/11
f 20/67/3 19/31/3 24/33/3
f 21/68/1 17/34/1 22/36/1
f 26/45/1 28/5/1 25/37/1
f 28/44/12 32/25/12 27/39/12
f 32/69/3 30/40/3 31/41/3
f 30/39/13 26/42/13 29/44/13
f 43/11/5 29/11/5 41/11/5
f 35/11/5 30/11/5 36/11/5
f 39/70/3 35/45/3 40/46/3
f 34/11/5 28/11/5 33/11/5
f 33/11/5 26/11/5 35/11/5
f 36/11/5 32/11/5 34/11/5
f 39/52/6 40/47/6 37/48/6
f 34/37/1 33/8/1 38/50/1
f 33/71/14 35/51/14 37/48/14
f 36/72/15 34/53/15 40/55/15
f 43/53/16 41/56/16 47/54/16
f 44/11/5 31/11/5 43/11/5
f 41/11/5 25/11/5 42/11/5
f 42/11/5 27/11/5 44/11/5
f 45/27/10 46/58/10 47/28/10
f 42/73/17 44/60/17 46/58/17
f 48/74/3 44/28/3 47/62/3
f 41/1/1 42/47/1 45/64/1
