# Blender v2.76 (sub 0) OBJ File: 'y.blend'
# www.blender.org
mtllib y.mtl
o Cube_Cube.001
v -0.844589 -0.390752 1.044668
v -0.844589 1.341299 0.044667
v -0.844589 -1.390752 -0.687383
v -0.844589 0.341298 -1.687383
v 1.155411 -0.390752 1.044668
v 1.155411 1.341299 0.044667
v 1.155411 -1.390752 -0.687383
v 1.155411 0.341298 -1.687383
v -0.844589 1.341299 0.044667
v -0.844589 0.341298 -1.687383
v 1.155411 1.341299 0.044667
v 1.155411 0.341298 -1.687383
v -0.844589 4.305400 -1.955333
v -0.844589 4.305400 -3.687384
v 1.155411 4.305400 -1.955333
v 1.155411 4.305400 -3.687384
v -0.844589 -0.390752 1.044668
v -0.844589 -1.390752 -0.687383
v 1.155411 -0.390752 1.044668
v 1.155411 -1.390752 -0.687383
v -0.844589 -4.354854 3.044668
v -0.844589 -4.354854 1.312617
v 1.155411 -4.354854 3.044668
v 1.155411 -4.354854 1.312617
v -0.844589 -1.390752 0.044667
v -0.844589 0.341298 1.044668
v -0.844589 -0.390752 -0.971536
v -0.844589 1.341299 -0.687383
v 1.155411 -1.390752 0.044667
v 1.155411 0.341298 1.044668
v 1.155411 -0.390752 -0.971536
v 1.155411 1.341299 -0.687383
v -0.844589 0.341298 1.044668
v -0.844589 1.341299 -0.687383
v 1.155411 0.341298 1.044668
v 1.155411 1.341299 -0.687383
v -0.844589 4.305400 3.044668
v -0.844589 4.305400 1.312617
v 1.155411 4.305400 3.044668
v 1.155411 4.305400 1.312617
v -0.844589 -1.390752 0.044667
v -0.844589 -0.390752 -0.971536
v 1.155411 -1.390752 0.044667
v 1.155411 -0.390752 -0.971536
vt 0.666579 0.785268
vt 0.833289 0.785268
vt 0.833289 0.962432
vt 0.833289 0.468507
vt 0.999998 0.468507
vt 0.999998 0.645671
vt 0.666579 0.962537
vt 0.499868 0.962537
vt 0.499868 0.785372
vt 0.833289 0.291342
vt 0.000000 0.000000
vt 0.499868 0.392686
vt 0.520707 0.000000
vt 0.645740 0.076715
vt 0.166711 0.000000
vt 0.333421 0.000000
vt 0.333421 0.077317
vt 0.499868 0.786620
vt 0.333421 0.776645
vt 0.370968 0.462421
vt 0.166711 0.393386
vt 0.166711 0.077317
vt 0.666579 0.392582
vt 0.666579 0.000000
vt 0.833289 0.000000
vt 0.833289 0.392686
vt 0.000000 0.077317
vt 0.000000 0.393386
vt 0.166711 0.786072
vt 0.187550 0.393386
vt 0.312583 0.470101
vt 0.499868 0.393310
vt 0.333421 0.383335
vt 0.370969 0.069111
vt 0.166711 0.963237
vt 0.029835 0.908321
vt 0.833289 0.645671
vt 0.946057 0.645671
vt 0.946057 0.822836
vt 0.333421 0.963237
vt 0.196546 0.840988
vt 0.915988 1.000000
vt 0.833289 1.000000
vt 0.833289 0.822836
vt 0.000000 0.786073
vt 0.020839 0.470101
vt 1.000000 0.000000
vt 1.000000 0.077317
vt 0.520707 0.392686
vt 0.645740 0.469401
vt 0.833289 0.077317
vt 0.462820 0.963785
vt 0.333421 0.963785
vt 0.333421 0.786620
vt 0.666579 0.962432
vt 0.666579 0.785372
vt 0.999998 0.291342
vt 0.666579 0.392686
vt 0.333421 0.393386
vt 0.833289 0.392582
vt 0.333421 0.786072
vt 0.499868 0.000000
vt 0.915988 0.822836
vt 0.145872 0.393386
vt 0.462820 0.786620
vn -1.000000 0.000000 0.000000
vn 0.000000 -0.500000 -0.866000
vn 1.000000 0.000000 0.000000
vn 0.000000 0.500000 0.866000
vn 0.000000 0.000000 1.000000
vn 0.000000 1.000000 0.000000
vn 0.000000 0.559300 0.828900
vn 0.000000 -0.450400 -0.892800
vn 0.000000 0.450400 0.892800
vn 0.000000 -1.000000 0.000000
vn 0.000000 -0.559300 -0.828900
vn 0.000000 0.161900 -0.986800
vn 0.000000 -0.500000 0.866000
vn 0.000000 -0.450400 0.892800
vn 0.000000 0.559300 -0.828900
usemtl None
s off
f 4/1/1 3/2/1 1/3/1
f 8/4/2 7/5/2 3/6/2
f 6/7/3 5/8/3 7/9/3
f 2/5/4 1/4/4 5/10/4
f 5/11/5 1/11/5 17/11/5
f 6/11/5 8/11/5 12/11/5
f 12/12/3 16/13/3 15/14/3
f 4/11/5 2/11/5 9/11/5
f 2/11/5 6/11/5 11/11/5
f 8/11/5 4/11/5 10/11/5
f 16/15/6 14/16/6 13/17/6
f 10/18/1 9/19/1 13/20/1
f 11/21/7 15/22/7 13/17/7
f 10/23/8 14/24/8 16/25/8
f 17/26/9 21/2/9 23/1/9
f 7/11/5 5/11/5 19/11/5
f 1/11/5 3/11/5 18/11/5
f 3/11/5 7/11/5 20/11/5
f 22/22/10 24/27/10 23/11/10
f 20/28/11 24/27/11 22/22/11
f 19/29/3 23/30/3 24/31/3
f 17/32/1 18/33/1 22/34/1
f 26/29/1 28/35/1 27/36/1
f 32/37/12 31/38/12 27/39/12
f 30/40/3 29/35/3 31/41/3
f 26/42/13 25/43/13 29/44/13
f 29/11/5 25/11/5 41/11/5
f 30/11/5 32/11/5 36/11/5
f 35/29/3 36/45/3 40/46/3
f 28/11/5 26/11/5 33/11/5
f 26/11/5 30/11/5 35/11/5
f 32/11/5 28/11/5 34/11/5
f 40/25/6 38/47/6 37/48/6
f 33/9/1 37/49/1 38/50/1
f 35/10/14 39/51/14 37/48/14
f 34/52/15 38/53/15 40/54/15
f 31/11/5 29/11/5 43/11/5
f 25/11/5 27/11/5 42/11/5
f 27/11/5 31/11/5 44/11/5
f 2/55/1 4/1/1 1/3/1
f 4/37/2 8/4/2 3/6/2
f 8/56/3 6/7/3 7/9/3
f 6/57/4 2/5/4 5/10/4
f 19/11/5 5/11/5 17/11/5
f 11/11/5 6/11/5 12/11/5
f 11/58/3 12/12/3 15/14/3
f 10/11/5 4/11/5 9/11/5
f 9/11/5 2/11/5 11/11/5
f 12/11/5 8/11/5 10/11/5
f 15/22/6 16/15/6 13/17/6
f 14/32/1 10/18/1 13/20/1
f 9/59/7 11/21/7 13/17/7
f 12/60/8 10/23/8 16/25/8
f 19/58/9 17/26/9 23/1/9
f 20/11/5 7/11/5 19/11/5
f 17/11/5 1/11/5 18/11/5
f 18/11/5 3/11/5 20/11/5
f 21/15/10 22/22/10 23/11/10
f 18/21/11 20/28/11 22/22/11
f 20/61/3 19/29/3 24/31/3
f 21/62/1 17/32/1 22/34/1
f 25/45/1 26/29/1 27/36/1
f 28/44/12 32/37/12 27/39/12
f 32/61/3 30/40/3 31/41/3
f 30/63/13 26/42/13 29/44/13
f 43/11/5 29/11/5 41/11/5
f 35/11/5 30/11/5 36/11/5
f 39/64/3 35/29/3 40/46/3
f 34/11/5 28/11/5 33/11/5
f 33/11/5 26/11/5 35/11/5
f 36/11/5 32/11/5 34/11/5
f 39/51/6 40/25/6 37/48/6
f 34/56/1 33/9/1 38/50/1
f 33/57/14 35/10/14 37/48/14
f 36/65/15 34/52/15 40/54/15
f 44/11/5 31/11/5 43/11/5
f 41/11/5 25/11/5 42/11/5
f 42/11/5 27/11/5 44/11/5
