# Blender v2.76 (sub 0) OBJ File: 'arrow.blend'
# www.blender.org
mtllib arrow.mtl
o Cube
v 0.707107 1.000000 -0.707107
v 0.000000 1.504477 -1.000000
v 0.000000 -1.000000 -2.000000
v 0.000000 1.000000 -2.000000
v 0.707107 -1.000000 -0.707107
v 0.707107 1.000000 -0.707107
v 1.000000 -1.000000 0.000000
v 1.000000 1.000000 0.000000
v 0.707107 -1.000000 0.707107
v 0.707107 1.000000 0.707107
v -0.000000 -1.000000 2.000000
v -0.000000 1.000000 2.000000
v -0.707107 -1.000000 0.707107
v -0.707107 1.000000 0.707107
v -1.000000 -1.000000 -0.000000
v -1.000000 1.000000 -0.000000
v -0.707107 -1.000000 -0.707107
v -0.707107 1.000000 -0.707107
v 1.000000 1.000000 0.000000
v 0.707107 1.000000 0.707107
v -0.000000 1.504477 1.000000
v -0.707107 1.000000 0.707107
v -1.000000 1.000000 -0.000000
v -0.707107 1.000000 -0.707107
v 0.707107 1.000000 -0.707107
v 0.000000 1.504477 -1.000000
v 1.000000 1.000000 0.000000
v 0.707107 1.000000 0.707107
v -0.000000 1.504477 1.000000
v -0.707107 1.000000 0.707107
v -1.000000 1.000000 -0.000000
v -0.707107 1.000000 -0.707107
v 0.707107 1.000000 -0.707107
v 0.000000 1.504477 -1.000000
v 1.000000 1.000000 0.000000
v 0.707107 1.000000 0.707107
v -0.000000 1.504477 1.000000
v -0.707107 1.000000 0.707107
v -1.000000 1.000000 -0.000000
v -0.707107 1.000000 -0.707107
v 0.707107 1.000000 -0.707107
v 0.000000 1.504477 -1.000000
v 1.000000 1.000000 0.000000
v 0.707107 1.000000 0.707107
v -0.000000 1.504477 1.000000
v -0.707107 1.000000 0.707107
v -1.000000 1.000000 -0.000000
v -0.707107 1.000000 -0.707107
v 0.707107 1.000000 -0.707107
v 0.000000 1.504477 -1.000000
v 1.000000 1.000000 0.000000
v 0.707107 1.000000 0.707107
v -0.000000 1.504477 1.000000
v -0.707107 1.000000 0.707107
v -1.000000 1.000000 -0.000000
v -0.707107 1.000000 -0.707107
v 0.000000 2.804569 0.000000
v -1.000000 -2.960207 -0.000000
v -0.707107 -2.960207 0.707107
v -0.000000 -2.960207 1.000000
v 0.707107 -2.960207 0.707107
v 1.000000 -2.960207 0.000000
v 0.707107 -2.960207 -0.707107
v 0.000000 -2.960207 -1.000000
v -0.707107 -2.960207 -0.707107
vt 0.000000 0.000000
vt 0.000000 0.499317
vt 0.187065 0.499115
vt 0.850045 0.909336
vt 0.663378 0.916315
vt 0.663378 0.706066
vt 0.567699 0.925662
vt 0.567699 0.715413
vt 0.283849 0.499630
vt 0.187065 0.247050
vt 0.743035 1.000000
vt 0.000000 0.247252
vt 0.567699 0.090664
vt 0.754365 0.083685
vt 0.754365 0.293934
vt 0.674709 0.000000
vt 0.850045 0.074338
vt 0.850045 0.284587
vt 0.470914 0.499115
vt 0.283849 0.499317
vt 0.283849 0.247252
vt 0.567699 0.499630
vt 0.470914 0.247050
vt 0.567699 0.509347
vt 0.663378 0.500000
vt 0.743035 0.530652
vt 0.754365 0.500000
vt 0.674709 0.469348
vt 0.112485 0.003688
vt 0.470914 0.000000
vt 0.567698 0.000514
vt 0.187065 0.000000
vt 0.283849 0.000514
vt 0.396334 0.003688
vt 0.850045 0.490653
vt 0.000000 0.634713
vt 0.165885 0.566384
vt 0.234597 0.731346
vt 0.850045 0.347414
vt 0.905983 0.264160
vt 1.000000 0.482611
vt 0.438682 0.808076
vt 0.384027 0.706470
vt 0.533456 0.566384
vt 0.905983 0.022854
vt 1.000000 0.000000
vt 1.000000 0.241305
vt 0.289253 0.808076
vt 0.234597 0.706470
vt 0.384027 0.566384
vt 0.533456 0.824141
vt 0.850045 0.106108
vt 0.384027 0.824141
vt 0.112485 0.566384
vt 0.850045 0.699087
vt 0.283849 0.247564
vt 0.567699 0.300913
vt 0.567699 0.247564
vt 0.396334 0.566384
vt 0.165885 0.799676
vt 0.068712 0.799675
vt 0.000000 0.731346
vt 0.068712 0.566384
vt 0.234597 0.634713
vn 0.000000 0.000000 1.000000
vn 0.877400 0.000000 -0.479800
vn 0.923900 0.000000 -0.382700
vn 0.923900 0.000000 0.382700
vn 0.635700 0.689200 -0.347700
vn 0.877400 0.000000 0.479800
vn -0.877400 0.000000 0.479800
vn -0.635700 0.689200 0.347700
vn -0.923900 0.000000 0.382700
vn -0.877400 0.000000 -0.479800
vn -0.923900 0.000000 -0.382700
vn 0.382700 0.000000 -0.923900
vn -0.382700 -0.000000 0.923900
vn 0.852200 -0.237800 0.466100
vn -0.852200 -0.237800 -0.466100
vn 0.000000 -1.000000 0.000000
vn -0.606700 0.484600 -0.630100
vn 0.606700 0.484600 -0.630100
vn 0.822400 0.455700 0.340600
vn -0.606700 0.484600 0.630100
vn -0.822400 0.455700 -0.340600
vn 0.822400 0.455700 -0.340600
vn 0.606700 0.484600 0.630100
vn -0.822400 0.455700 0.340600
vn 0.635700 0.689200 0.347700
vn -0.635700 0.689200 -0.347700
vn 0.852200 -0.237800 -0.466100
vn -0.852200 -0.237800 0.466100
vn 0.382700 0.000000 0.923900
vn -0.382700 -0.000000 -0.923900
usemtl Material
s off
f 19/1/1 1/1/1 25/1/1
f 12/2/1 10/3/1 20/3/1
f 4/4/2 6/5/2 5/6/2
f 24/1/1 23/1/1 31/1/1
f 18/1/1 16/1/1 23/1/1
f 6/5/3 8/7/3 7/8/3
f 2/1/1 24/1/1 32/1/1
f 10/1/1 8/1/1 19/1/1
f 8/9/4 10/3/4 9/10/4
f 20/1/1 19/1/1 27/1/1
f 6/5/5 4/4/5 2/11/5
f 10/3/6 12/2/6 11/12/6
f 29/1/1 28/1/1 36/1/1
f 16/1/1 14/1/1 22/1/1
f 12/13/7 14/14/7 13/15/7
f 14/14/8 12/13/8 21/16/8
f 21/1/1 20/1/1 28/1/1
f 14/14/9 16/17/9 15/18/9
f 8/1/1 6/1/1 1/1/1
f 18/19/10 4/20/10 3/21/10
f 16/22/11 18/19/11 17/23/11
f 23/1/1 22/1/1 30/1/1
f 4/20/1 18/19/1 24/19/1
f 7/8/3 62/24/3 63/25/3
f 22/1/1 21/1/1 29/1/1
f 1/1/1 2/1/1 26/1/1
f 35/1/1 33/1/1 41/1/1
f 31/1/1 30/1/1 38/1/1
f 26/1/1 32/1/1 40/1/1
f 25/1/1 26/1/1 34/1/1
f 28/1/1 27/1/1 35/1/1
f 30/1/1 29/1/1 37/1/1
f 32/1/1 31/1/1 39/1/1
f 27/1/1 25/1/1 33/1/1
f 44/1/1 43/1/1 51/1/1
f 37/1/1 36/1/1 44/1/1
f 39/1/1 38/1/1 46/1/1
f 34/1/1 40/1/1 48/1/1
f 33/1/1 34/1/1 42/1/1
f 36/1/1 35/1/1 43/1/1
f 38/1/1 37/1/1 45/1/1
f 40/1/1 39/1/1 47/1/1
f 46/1/1 45/1/1 53/1/1
f 48/1/1 47/1/1 55/1/1
f 43/1/1 41/1/1 49/1/1
f 45/1/1 44/1/1 52/1/1
f 47/1/1 46/1/1 54/1/1
f 42/1/1 48/1/1 56/1/1
f 41/1/1 42/1/1 50/1/1
f 5/6/12 63/25/12 64/26/12
f 13/15/13 59/27/13 60/28/13
f 9/10/14 11/12/14 60/29/14
f 17/23/11 65/30/11 58/31/11
f 9/10/4 61/32/4 62/33/4
f 17/23/15 3/21/15 64/34/15
f 15/18/9 58/35/9 59/27/9
f 61/36/16 59/37/16 65/38/16
f 50/39/17 56/40/17 57/41/17
f 49/42/18 50/43/18 57/44/18
f 52/45/19 51/46/19 57/47/19
f 54/48/20 53/49/20 57/50/20
f 56/40/21 55/47/21 57/41/21
f 51/51/22 49/42/22 57/44/22
f 53/52/23 52/45/23 57/47/23
f 55/53/24 54/48/24 57/50/24
f 27/1/1 19/1/1 25/1/1
f 21/54/25 12/2/25 20/3/25
f 3/55/2 4/4/2 5/6/2
f 32/1/1 24/1/1 31/1/1
f 24/1/1 18/1/1 23/1/1
f 5/6/3 6/5/3 7/8/3
f 26/1/1 2/1/1 32/1/1
f 20/1/1 10/1/1 19/1/1
f 7/56/4 8/9/4 9/10/4
f 28/1/1 20/1/1 27/1/1
f 1/5/1 6/5/1 2/11/1
f 9/10/6 10/3/6 11/12/6
f 37/1/1 29/1/1 36/1/1
f 23/1/1 16/1/1 22/1/1
f 11/57/7 12/13/7 13/15/7
f 22/14/1 14/14/1 21/16/1
f 29/1/1 21/1/1 28/1/1
f 13/15/9 14/14/9 15/18/9
f 19/1/1 8/1/1 1/1/1
f 17/23/10 18/19/10 3/21/10
f 15/58/11 16/22/11 17/23/11
f 31/1/1 23/1/1 30/1/1
f 2/59/26 4/20/26 24/19/26
f 5/6/3 7/8/3 63/25/3
f 30/1/1 22/1/1 29/1/1
f 25/1/1 1/1/1 26/1/1
f 43/1/1 35/1/1 41/1/1
f 39/1/1 31/1/1 38/1/1
f 34/1/1 26/1/1 40/1/1
f 33/1/1 25/1/1 34/1/1
f 36/1/1 28/1/1 35/1/1
f 38/1/1 30/1/1 37/1/1
f 40/1/1 32/1/1 39/1/1
f 35/1/1 27/1/1 33/1/1
f 52/1/1 44/1/1 51/1/1
f 45/1/1 37/1/1 44/1/1
f 47/1/1 39/1/1 46/1/1
f 42/1/1 34/1/1 48/1/1
f 41/1/1 33/1/1 42/1/1
f 44/1/1 36/1/1 43/1/1
f 46/1/1 38/1/1 45/1/1
f 48/1/1 40/1/1 47/1/1
f 54/1/1 46/1/1 53/1/1
f 56/1/1 48/1/1 55/1/1
f 51/1/1 43/1/1 49/1/1
f 53/1/1 45/1/1 52/1/1
f 55/1/1 47/1/1 54/1/1
f 50/1/1 42/1/1 56/1/1
f 49/1/1 41/1/1 50/1/1
f 3/55/27 5/6/27 64/26/27
f 11/57/28 13/15/28 60/28/28
f 61/32/29 9/10/29 60/29/29
f 15/58/11 17/23/11 58/31/11
f 7/56/4 9/10/4 62/33/4
f 65/30/30 17/23/30 64/34/30
f 13/15/9 15/18/9 59/27/9
f 65/38/16 64/60/16 63/61/16
f 63/61/16 62/62/16 61/36/16
f 61/36/16 60/63/16 59/37/16
f 59/37/16 58/64/16 65/38/16
f 65/38/16 63/61/16 61/36/16
