# Exported from Wings 3D 2.0.3
mtllib lapida-draven.mtl
o Cube1
#36 vertices, 68 faces
v -0.25000000 -1.24772608 -0.93053184
v -0.25000000 -1.24772608 0.95150336
v -0.25000000 1.00000000 -1.00000000
v -0.25000000 1.00000000 1.00000000
v 0.25000000 -1.24772608 -0.93053184
v 0.25000000 -1.24772608 1.00000000
v 0.25000000 1.00000000 -1.00000000
v 0.25000000 1.00000000 1.00000000
v -0.25000000 -1.24772608 -0.75000000
v -0.25000000 -1.24772608 -0.50000000
v -0.25000000 -1.24772608 -0.25000000
v -0.25000000 -1.24772608 0.0000000e+0
v -0.25000000 -1.24772608 0.25000000
v -0.25000000 -1.24772608 0.50000000
v -0.25000000 -1.24772608 0.75000000
v -0.25000000 1.00000000 -0.75000000
v -0.25000000 1.00000000 -0.50000000
v -0.25000000 0.74774955 -0.25000000
v -0.25000000 0.69789611 0.0000000e+0
v -0.25000000 0.74774955 0.25000000
v -0.25000000 1.00000000 0.50000000
v -0.25000000 1.00000000 0.75000000
v 0.25000000 -1.24772608 -0.75000000
v 0.25000000 -1.24772608 -0.50000000
v 0.25000000 -1.24772608 -0.25000000
v 0.25000000 -1.24772608 0.0000000e+0
v 0.25000000 -1.24772608 0.25000000
v 0.25000000 -1.24772608 0.50000000
v 0.25000000 -1.24772608 0.75000000
v 0.25000000 1.00000000 -0.75000000
v 0.25000000 1.00000000 -0.50000000
v 0.25000000 0.74774955 -0.25000000
v 0.25000000 0.69789611 0.0000000e+0
v 0.25000000 0.74774955 0.25000000
v 0.25000000 1.00000000 0.50000000
v 0.25000000 1.00000000 0.75000000
vt 3.5577228e-2 0.96259737
vt 4.3610940e-2 0.96790420
vt 9.9912913e-2 4.9143136e-2
vt 0.12284819 2.9803765e-2
vt 0.19813611 2.9803765e-2
vt 0.19813611 0.96718198
vt 0.20157110 0.96297925
vt 0.20166801 4.9139302e-2
vt 0.26089133 9.4611451e-2
vt 0.26318125 0.20578484
vt 0.26509377 9.3874976e-2
vt 0.26668316 0.20499258
vt 0.30239461 2.9803765e-2
vt 0.30239461 0.96718198
vt 0.30313656 0.96295574
vt 0.30341521 4.9177482e-2
vt 0.40486678 0.86044371
vt 0.40494903 4.9180122e-2
vt 0.40665311 2.9803765e-2
vt 0.40665311 0.86198496
vt 0.50635078 0.84011379
vt 0.50646515 4.9142038e-2
vt 0.51091161 2.9803765e-2
vt 0.51091161 0.84119438
vt 0.55592332 7.9593387e-2
vt 0.55592332 8.2243892e-2
vt 0.55592332 8.3951973e-2
vt 0.55592332 8.5857554e-2
vt 0.55592332 0.13784238
vt 0.55592332 0.13955046
vt 0.55592332 0.14255072
vt 0.55592332 0.15857621
vt 0.55592332 0.15857621
vt 0.55592332 0.19344086
vt 0.55592332 0.19514894
vt 0.55592332 0.19924389
vt 0.55592332 0.23755903
vt 0.60813527 0.86045387
vt 0.60822648 4.9213270e-2
vt 0.61517011 2.9803765e-2
vt 0.61517011 0.86198496
vt 0.66712029 7.9593387e-2
vt 0.66712029 8.2243892e-2
vt 0.66712029 8.3951973e-2
vt 0.66712029 8.5857554e-2
vt 0.66712029 0.13784238
vt 0.66712029 0.13955046
vt 0.66712029 0.14255072
vt 0.66712029 0.15857621
vt 0.66712029 0.19344086
vt 0.66712029 0.19514894
vt 0.66712029 0.19924389
vt 0.66712029 0.23755903
vt 0.66757339 8.0166667e-2
vt 0.66757339 0.18270498
vt 0.66850470 0.14245501
vt 0.66904731 0.13515725
vt 0.66963131 8.6758079e-2
vt 0.67014002 0.19008247
vt 0.67050611 0.19774691
vt 0.67082461 8.7447948e-2
vt 0.67091385 0.14245912
vt 0.70977529 4.9183040e-2
vt 0.70989700 0.96302819
vt 0.71942862 2.9803765e-2
vt 0.71942862 0.96718198
vt 0.76090461 8.4312278e-2
vt 0.76319453 0.19548567
vt 0.76472507 8.6205773e-2
vt 0.76620652 0.19784607
vt 0.77864647 8.8142730e-2
vt 0.77910409 0.18535270
vt 0.77974177 0.13281165
vt 0.78015842 0.14477204
vt 0.78090338 0.18833286
vt 0.78127353 8.8527715e-2
vt 0.78176685 8.6552512e-2
vt 0.78199075 0.19869632
vt 0.78213456 0.14249947
vt 0.81138876 0.96300598
vt 0.81148618 4.9238748e-2
vt 0.82368712 2.9803765e-2
vt 0.82368712 0.96718198
vt 0.88492957 4.9301027e-2
vt 0.90772087 2.9803765e-2
vt 0.95981713 0.96953070
vt 0.96593451 0.97671531
vn -0.57149553 -0.58914972 -0.57122278
vn -0.60955528 -0.56783612 0.55317674
vn -0.58338872 0.56536713 -0.58311030
vn -0.59802005 0.56436460 0.56909104
vn 0.57149553 -0.58914972 -0.57122278
vn 0.55672584 -0.59123472 0.58352194
vn 0.58338872 0.56536713 -0.58311030
vn 0.57735027 0.57735027 0.57735027
vn -0.70710678 -0.70710678 0.0000000e+0
vn -0.70710678 -0.70710678 0.0000000e+0
vn -0.70710678 -0.70710678 0.0000000e+0
vn -0.70710678 -0.70710678 0.0000000e+0
vn -0.70710678 -0.70710678 0.0000000e+0
vn -0.70710678 -0.70710678 0.0000000e+0
vn -0.70710678 -0.70710678 0.0000000e+0
vn -0.70710678 0.70710678 0.0000000e+0
vn -0.73482434 0.62604512 0.26096111
vn -0.72270093 0.60873910 0.32732257
vn -0.71396614 0.70018023 0.0000000e+0
vn -0.72270093 0.60873910 -0.32732257
vn -0.73482434 0.62604512 -0.26096111
vn -0.70710678 0.70710678 0.0000000e+0
vn 0.70710678 -0.70710678 0.0000000e+0
vn 0.70710678 -0.70710678 0.0000000e+0
vn 0.70710678 -0.70710678 0.0000000e+0
vn 0.70710678 -0.70710678 0.0000000e+0
vn 0.70710678 -0.70710678 0.0000000e+0
vn 0.70710678 -0.70710678 0.0000000e+0
vn 0.70710678 -0.70710678 0.0000000e+0
vn 0.70710678 0.70710678 0.0000000e+0
vn 0.73482434 0.62604512 0.26096111
vn 0.72270093 0.60873910 0.32732257
vn 0.71396614 0.70018023 0.0000000e+0
vn 0.72270093 0.60873910 -0.32732257
vn 0.73482434 0.62604512 -0.26096111
vn 0.70710678 0.70710678 0.0000000e+0
g Cube1
usemtl Cube1_auv
s 1
f 1/72/1 5/55/5 9/74/9
f 2/69/2 6/70/6 4/11/4
f 2/71/2 15/73/15 6/54/6
f 3/10/3 5/67/5 1/68/1
f 3/2/3 9/5/9 16/6/16
f 3/34/3 30/46/30 7/50/7
f 4/11/4 6/70/6 8/12/8
f 4/87/4 15/82/15 2/85/2
f 4/27/4 36/47/36 22/30/22
f 5/84/5 30/80/30 23/81/23
f 6/54/6 15/73/15 29/57/29
f 6/3/6 36/7/36 8/1/8
f 7/9/7 5/67/5 3/10/3
f 7/86/7 30/80/30 5/84/5
f 8/44/8 36/47/36 4/27/4
f 9/5/9 3/2/3 1/4/1
f 9/74/9 24/58/24 10/76/10
f 10/13/10 17/14/17 9/5/9
f 10/76/10 24/58/24 11/78/11
f 11/19/11 17/14/17 10/13/10
f 11/78/11 26/62/26 12/79/12
f 12/23/12 19/24/19 11/19/11
f 12/79/12 26/62/26 13/77/13
f 13/40/13 19/24/19 12/23/12
f 13/77/13 28/59/28 14/75/14
f 14/65/14 21/66/21 13/40/13
f 14/75/14 28/59/28 15/73/15
f 15/82/15 21/66/21 14/65/14
f 16/6/16 9/5/9 17/14/17
f 16/29/16 30/46/30 3/34/3
f 17/14/17 11/19/11 18/20/18
f 17/26/17 30/46/30 16/29/16
f 18/20/18 11/19/11 19/24/19
f 18/25/18 32/42/32 17/32/17
f 19/24/19 13/40/13 20/41/20
f 19/31/19 32/52/32 18/36/18
f 20/41/20 13/40/13 21/66/21
f 20/28/20 34/45/34 19/31/19
f 21/66/21 15/82/15 22/83/22
f 21/53/21 34/33/34 20/49/20
f 22/83/22 15/82/15 4/87/4
f 22/30/22 36/47/36 21/35/21
f 23/56/23 9/74/9 5/55/5
f 23/81/23 30/80/30 24/63/24
f 24/58/24 9/74/9 23/56/23
f 24/63/24 32/38/32 25/39/25
f 25/60/25 11/78/11 24/58/24
f 25/39/25 32/38/32 26/22/26
f 26/62/26 11/78/11 25/60/25
f 26/22/26 34/17/34 27/18/27
f 27/61/27 13/77/13 26/62/26
f 27/18/27 34/17/34 28/16/28
f 28/59/28 13/77/13 27/61/27
f 28/16/28 36/7/36 29/8/29
f 29/57/29 15/73/15 28/59/28
f 29/8/29 36/7/36 6/3/6
f 30/46/30 17/26/17 31/43/31
f 31/49/31 17/32/17 32/42/32
f 31/64/31 24/63/24 30/80/30
f 32/52/32 19/31/19 33/48/33
f 32/38/32 24/63/24 31/64/31
f 33/48/33 19/31/19 34/45/34
f 33/21/33 26/22/26 32/38/32
f 34/33/34 21/53/21 35/37/35
f 34/17/34 26/22/26 33/21/33
f 35/51/35 21/35/21 36/47/36
f 35/15/35 28/16/28 34/17/34
f 36/7/36 28/16/28 35/15/35
