# Blender v3.0.1 OBJ File: 'pentagon1.blend'
# www.blender.org
mtllib pentagon1.mtl
o Cube
v 0.000000 0.309017 -0.951057
v 0.000000 -0.809017 -0.587785
v 0.000000 0.309017 0.951057
v 0.000000 -0.809017 0.587785
v 0.000000 1.000000 0.000000
v 0.000000 0.309017 -0.225468
v 0.000000 0.309017 0.224556
v 0.000000 -0.117053 0.362960
v 0.000000 0.309017 0.224556
v 0.000000 -0.117053 -0.362960
v 0.000000 0.309017 -0.225468
v 0.000000 -0.381743 0.000000
v 0.000000 -0.117053 0.362960
v 0.000000 -0.117053 -0.362960
v 0.000000 -0.381743 0.000000
vt 0.308885 0.000108
vt 0.499992 0.263139
vt 0.308965 0.324834
vt 0.309321 0.525575
vt 0.000108 0.425103
vt 0.308885 0.850098
vt 0.499708 0.587452
vt 0.808496 0.687764
vt 0.808496 0.162441
vt 0.617912 0.424758
vt 0.796767 0.680376
vt 0.504025 0.585927
vt 0.620986 0.425889
vn 1.0000 0.0000 0.0000
usemtl Material
s off
f 2/1/1 14/2/1 15/3/1
f 8/4/1 4/5/1 15/3/1
f 3/6/1 8/4/1 9/7/1
f 9/7/1 5/8/1 3/6/1
f 3/6/1 4/5/1 8/4/1
f 15/3/1 4/5/1 2/1/1
f 2/1/1 1/9/1 14/2/1
f 11/10/1 1/9/1 5/8/1
f 5/11/1 7/12/1 6/13/1
f 1/9/1 11/10/1 14/2/1
l 7 3
l 13 3
l 1 6
l 2 10
l 10 11
l 2 12
l 12 13
