# Blender v2.76 (sub 0) OBJ File: ''
# www.blender.org
mtllib test-collision.mtl
o Cylinder
v 0.000000 -1.000000 -10.000000
v 0.000000 14.027613 -10.000000
v 7.071068 -1.000000 -7.071068
v 7.071068 14.027613 -7.071068
v 10.000000 -1.000000 0.000000
v 10.000000 14.027613 0.000000
v 7.071068 -1.000000 7.071068
v 7.071068 14.027613 7.071068
v -0.000001 -1.000000 10.000000
v -0.000001 14.027613 10.000000
v -7.071069 -1.000000 7.071066
v -7.071069 14.027613 7.071066
v -10.000000 -1.000000 -0.000000
v -10.000000 14.027613 -0.000000
v -7.071069 -1.000000 -7.071066
v -7.071069 14.027613 -7.071066
vt 0.835655 0.000000
vt 0.835655 0.406644
vt 1.000000 0.406644
vt 0.719446 0.000000
vt 0.719446 0.406644
vt 0.719446 0.353553
vt 0.396763 0.353553
vt 0.396763 0.500000
vt 0.719446 0.146447
vt 0.396763 0.146447
vt 0.396763 0.000000
vt 0.396763 0.646447
vt 0.719446 0.646447
vt 0.719446 0.500000
vt 0.000000 0.646447
vt 0.280554 1.000000
vt 0.396763 0.853553
vt 0.396763 1.000000
vt 0.719446 1.000000
vt 0.719446 0.853553
vt 0.000000 0.353553
vt 0.280554 0.500000
vt 1.000000 0.000000
vt 0.116209 0.500000
vt 0.000000 0.853553
vt 0.116209 1.000000
vt 0.280554 0.000000
vt 0.116209 0.000000
vt 0.000000 0.146447
vn -0.382700 0.000000 0.923900
vn -0.923900 0.000000 0.382700
vn -0.923900 0.000000 -0.382700
vn -0.382700 0.000000 -0.923900
vn 0.382700 0.000000 -0.923900
vn 0.923900 0.000000 -0.382700
vn 0.000000 -1.000000 0.000000
vn 0.382700 0.000000 0.923900
vn 0.923900 0.000000 0.382700
vn 0.000000 1.000000 0.000000
usemtl None
s off
f 3/1/1 4/2/1 2/3/1
f 5/4/2 6/5/2 4/2/2
f 7/6/3 8/7/3 6/8/3
f 9/9/4 10/10/4 8/7/4
f 11/4/5 12/11/5 10/10/5
f 13/12/6 14/13/6 12/14/6
f 10/15/7 16/16/7 2/17/7
f 1/18/8 2/19/8 16/20/8
f 15/17/9 16/20/9 14/13/9
f 11/21/10 7/22/10 3/10/10
f 1/23/1 3/1/1 2/3/1
f 3/1/2 5/4/2 4/2/2
f 5/14/3 7/6/3 6/8/3
f 7/6/4 9/9/4 8/7/4
f 9/9/5 11/4/5 10/10/5
f 11/8/6 13/12/6 12/14/6
f 2/17/7 4/12/7 6/22/7
f 6/22/7 8/24/7 2/17/7
f 10/15/7 12/25/7 16/16/7
f 14/26/7 16/16/7 12/25/7
f 2/17/7 8/24/7 10/15/7
f 15/17/8 1/18/8 16/20/8
f 13/12/9 15/17/9 14/13/9
f 3/10/10 1/27/10 15/28/10
f 15/28/10 13/29/10 11/21/10
f 11/21/10 9/24/10 7/22/10
f 7/22/10 5/7/10 3/10/10
f 3/10/10 15/28/10 11/21/10
